# xmcd
#
# Track frame offsets:
#	150
#	16696
#	32109
#	50721
#	68949
#	86811
#	104434
#	120333
#	136052
#
# Disc length: 2046 seconds
#
# Revision: 0
# Processed by: cddbd v1.5.2PL0 Copyright (c) Steve Scherf et al.
# Submitted via: EZCDAudioConverter 7.1.5.1
#
DISCID=7207fc09
DTITLE=吉馬大對唱 - 吉馬大對唱 10 CD 典藏版
DYEAR=20110616
DGENRE=
TTITLE0=橄欖樹
TTITLE1=苦酒滿杯
TTITLE2=不想你也難
TTITLE3=單身貴族
TTITLE4=茫茫到深更
TTITLE5=愛難忘情難忘
TTITLE6=過客
TTITLE7=嫁不對人
TTITLE8=冷霜子
EXTD=
EXTT0=
EXTT1=
EXTT2=
EXTT3=
EXTT4=
EXTT5=
EXTT6=
EXTT7=
EXTT8=
PLAYORDER=
